<?xml version="1.0" encoding="iso-8859-1"?>
<!-- Generator: Adobe Illustrator 19.0.0, SVG Export Plug-In . SVG Version: 6.00 Build 0)  -->
<svg version="1.1" id="Capa_1" xmlns="http://www.w3.org/2000/svg" xmlns:xlink="http://www.w3.org/1999/xlink" x="0px" y="0px"
	 viewBox="0 0 512 512" style="enable-background:new 0 0 512 512;" xml:space="preserve">
<g>
	<g>
		<path d="M432.126,0H142.738c-24.813,0-45,20.187-45,45v350.42H49.874c-8.284,0-15,6.716-15,15V467c0,24.813,20.187,45,45,45
			h289.388c24.813,0,45-20.187,45-45V116.58h47.865c8.284,0,15-6.716,15-15V45C477.126,20.187,456.939,0,432.126,0z M97.739,482
			H79.874c-8.271,0-15-6.729-15-15v-41.58h32.865V482z M384.26,467c0.001,8.271-6.728,15-14.999,15H127.737V45
			c0-8.271,6.729-15,15-15H384.26V467z M447.127,86.58h-32.865V30h17.865c8.271,0,15,6.729,15,15V86.58z"/>
	</g>
</g>
<g>
	<g>
		<path d="M330.96,69.439H181.041c-8.284,0-15,6.716-15,15s6.715,15,15,15H330.96c8.284,0,15-6.716,15-15
			S339.244,69.439,330.96,69.439z"/>
	</g>
</g>
<g>
	<g>
		<path d="M330.959,134.391H181.041c-8.284,0-15,6.716-15,15s6.716,15,15,15H330.96c8.284,0,15-6.716,15-15
			S339.244,134.391,330.959,134.391z"/>
	</g>
</g>
<g>
	<g>
		<path d="M330.959,199.342H181.041c-8.284,0-15,6.716-15,15s6.716,15,15,15H330.96c8.284,0,15-6.716,15-15
			S339.244,199.342,330.959,199.342z"/>
	</g>
</g>
<g>
	<g>
		<path d="M330.959,264.294H181.041c-8.284,0-15,6.716-15,15s6.716,15,15,15H330.96c8.284,0,15-6.716,15-15
			S339.244,264.294,330.959,264.294z"/>
	</g>
</g>
<g>
	<g>
		<path d="M330.959,329.245H181.041c-8.284,0-15,6.716-15,15s6.716,15,15,15H330.96c8.284,0,15-6.716,15-15
			S339.244,329.245,330.959,329.245z"/>
	</g>
</g>
<g>
	<g>
		<path d="M328.021,412.561h-53.51c-8.284,0-15,6.716-15,15s6.716,15,15,15h53.51c8.284,0,15-6.716,15-15
			S336.305,412.561,328.021,412.561z"/>
	</g>
</g>
<g>
</g>
<g>
</g>
<g>
</g>
<g>
</g>
<g>
</g>
<g>
</g>
<g>
</g>
<g>
</g>
<g>
</g>
<g>
</g>
<g>
</g>
<g>
</g>
<g>
</g>
<g>
</g>
<g>
</g>
</svg>
